<svg width="18" height="18" viewBox="0 0 18 18" fill="none" xmlns="http://www.w3.org/2000/svg">
<path d="M8.25 14.25H15.75M8.25 3.75H15.75H8.25ZM8.25 9H15.75H8.25Z" stroke="#262B4F" stroke-width="2" stroke-linecap="round" stroke-linejoin="round"/>
<path d="M4.5 2.25H3C2.58579 2.25 2.25 2.58579 2.25 3V4.5C2.25 4.91421 2.58579 5.25 3 5.25H4.5C4.91421 5.25 5.25 4.91421 5.25 4.5V3C5.25 2.58579 4.91421 2.25 4.5 2.25Z" stroke="#262B4F" stroke-width="2" stroke-linecap="round" stroke-linejoin="round"/>
<path d="M4.5 7.5H3C2.58579 7.5 2.25 7.83579 2.25 8.25V9.75C2.25 10.1642 2.58579 10.5 3 10.5H4.5C4.91421 10.5 5.25 10.1642 5.25 9.75V8.25C5.25 7.83579 4.91421 7.5 4.5 7.5Z" stroke="#262B4F" stroke-width="2" stroke-linecap="round" stroke-linejoin="round"/>
<path d="M4.5 12.75H3C2.58579 12.75 2.25 13.0858 2.25 13.5V15C2.25 15.4142 2.58579 15.75 3 15.75H4.5C4.91421 15.75 5.25 15.4142 5.25 15V13.5C5.25 13.0858 4.91421 12.75 4.5 12.75Z" stroke="#262B4F" stroke-width="2" stroke-linecap="round" stroke-linejoin="round"/>
</svg>
