<svg width="24" height="24" viewBox="0 0 24 24" fill="none" xmlns="http://www.w3.org/2000/svg">
<g clip-path="url(#clip0_6_409)">
<path d="M11.9416 12.4391C11.7579 12.4391 11.5764 12.4135 11.4019 12.3638C11.5763 12.4129 11.7578 12.4384 11.9416 12.4384C12.1254 12.4384 12.3068 12.4129 12.4812 12.3638C12.3067 12.4135 12.1252 12.4391 11.9416 12.4391ZM16.9134 8.99839L16.9129 8.99855C16.9129 8.99855 16.9129 8.99855 16.9129 8.99854L16.9134 8.99839ZM16.919 8.99678L16.9203 8.99642L16.919 8.99678ZM2.15581 19.8267C2.90284 20.5774 3.91706 21 4.97564 21H18.9075C19.9661 21 20.9803 20.5774 21.7273 19.8267C22.4742 19.0762 22.8929 18.0593 22.8929 17V7C22.8929 5.9407 22.4742 4.92382 21.7273 4.1733C20.9803 3.42262 19.9661 3 18.9075 3H4.97564C3.91706 3 2.90284 3.42262 2.15581 4.1733C1.40894 4.92382 0.990234 5.9407 0.990234 7V17C0.990234 18.0593 1.40894 19.0762 2.15581 19.8267Z" stroke="#9F9F9F" stroke-width="2"/>
</g>
<defs>
<clipPath id="clip0_6_409">
<rect width="24" height="24" fill="white"/>
</clipPath>
</defs>
</svg>
