<svg width="30" height="30" viewBox="0 0 30 30" fill="none" xmlns="http://www.w3.org/2000/svg">
<path d="M25.3125 22.5872H4.6875V20.4942H5.71875V13.201C5.71875 7.98105 9.87469 3.75 15 3.75C20.1253 3.75 24.2812 7.98105 24.2812 13.201V20.4942H25.3125V22.5872ZM7.78125 20.4942H22.2188V13.201C22.2188 9.13744 18.9868 5.84302 15 5.84302C11.0132 5.84302 7.78125 9.13744 7.78125 13.201V20.4942ZM12.4219 23.6337H17.5781C17.5781 24.3276 17.3065 24.9931 16.823 25.4837C16.3395 25.9744 15.6838 26.25 15 26.25C14.3162 26.25 13.6605 25.9744 13.177 25.4837C12.6935 24.9931 12.4219 24.3276 12.4219 23.6337Z" fill="#444D8F"/>
</svg>
