<svg width="32" height="32" viewBox="0 0 32 32" fill="none" xmlns="http://www.w3.org/2000/svg">
<path d="M29.6068 7.39981C24.82 -0.000244381 15.047 -2.20026 7.46785 2.39977C0.0881835 6.99981 -2.30522 16.9999 2.48159 24.3999L2.88049 24.9999L1.28489 31L7.2684 29.4L7.86675 29.8C10.4596 31.2 13.2519 32 16.0442 32C19.036 32 22.0277 31.2 24.6206 29.6C32.0002 24.7999 34.1942 14.9999 29.6068 7.39981ZM25.4184 22.7999C24.6206 23.9999 23.6233 24.7999 22.2272 24.9999C21.4294 24.9999 20.4321 25.3999 16.4431 23.7999C13.0525 22.1999 10.2602 19.5999 8.26565 16.5999C7.06895 15.1999 6.4706 13.3999 6.27115 11.5998C6.27115 9.99983 6.8695 8.59982 7.86675 7.59981C8.26565 7.19981 8.66455 6.99981 9.06345 6.99981H10.0607C10.4596 6.99981 10.8585 6.99981 11.058 7.79981C11.4569 8.79982 12.4541 11.1998 12.4541 11.3998C12.6536 11.5998 12.6536 11.9998 12.4541 12.1998C12.6536 12.5999 12.4541 12.9999 12.2547 13.1999C12.0552 13.3999 11.8558 13.7999 11.6563 13.9999C11.2574 14.1999 11.058 14.5999 11.2574 14.9999C12.0552 16.1999 13.0525 17.3999 14.0497 18.3999C15.2464 19.3999 16.4431 20.1999 17.8393 20.7999C18.2382 20.9999 18.6371 20.9999 18.8365 20.5999C19.036 20.1999 20.0332 19.1999 20.4321 18.7999C20.831 18.3999 21.0305 18.3999 21.4294 18.5999L24.6206 20.1999C25.0195 20.3999 25.4184 20.5999 25.6178 20.7999C25.8173 21.3999 25.8173 22.1999 25.4184 22.7999Z" fill="white"/>
</svg>
